<?xml version="1.0" encoding="UTF-8" standalone="no"?>
<svg
   xmlns:dc="http://purl.org/dc/elements/1.1/"
   xmlns:cc="http://creativecommons.org/ns#"
   xmlns:rdf="http://www.w3.org/1999/02/22-rdf-syntax-ns#"
   xmlns:svg="http://www.w3.org/2000/svg"
   xmlns="http://www.w3.org/2000/svg"
   width="134.30745"
   height="50"
   viewBox="0 0 125.91323 46.875"
   id="svg4668"
   version="1.1">
  <defs
     id="defs4670" />
  <metadata
     id="metadata4673">
    <rdf:RDF>
      <cc:Work
         rdf:about="">
        <dc:format>image/svg+xml</dc:format>
        <dc:type
           rdf:resource="http://purl.org/dc/dcmitype/StillImage" />
        <dc:title></dc:title>
      </cc:Work>
    </rdf:RDF>
  </metadata>
  <g
     transform="matrix(0.18363544,0,0,0.18363544,-0.34418148,18.405731)"
     id="g5273">
    <g
       style="font-style:normal;font-variant:normal;font-weight:bold;font-stretch:normal;font-size:256.41433716px;line-height:125%;font-family:'Cormorant Upright';-inkscape-font-specification:'Cormorant Upright Bold';text-align:start;letter-spacing:0px;word-spacing:0px;writing-mode:lr-tb;text-anchor:start;display:inline;fill:#ffffff;fill-opacity:1;stroke:none;stroke-width:1px;stroke-linecap:butt;stroke-linejoin:miter;stroke-opacity:1"
       id="text4157-6-0-1-2"
       transform="matrix(0.54840222,0,0,0.54840222,170.60844,-58.44454)">
      <path
         d="m 74.249646,321.83204 q -31.538963,0 -51.795696,-12.30789 -20.2567325,-12.30789 -29.2312343,-31.02614 -8.9745017,-18.97466 -8.9745017,-40.00063 0,-25.38502 12.3078881,-44.10327 12.5643025,-18.97466 33.0774499,-28.7184 20.769561,-10.00016 44.872509,-10.00016 11.795059,0 24.615776,2.30773 12.820713,2.05131 20.769563,5.12828 2.05131,1.28207 2.56414,2.30773 0.76924,1.02566 0.76924,3.5898 l 1.7949,34.35952 q 0,0.76925 -1.28207,0.76925 -1.02565,0 -1.53848,-0.76925 -9.48733,-19.48749 -24.359365,-30.00047 -14.615617,-10.76941 -33.333864,-10.76941 -24.359362,0 -37.436493,17.69259 -12.820717,17.69259 -12.820717,49.74439 0,23.07729 7.948845,43.0776 8.205259,20.00032 22.051633,31.79538 13.846374,11.79506 30.513306,11.79506 26.410675,0 49.231555,-38.97498 0.51283,-0.76924 1.28207,-0.76924 1.53849,0 1.53849,1.53848 l -1.53849,29.48765 q -0.51283,3.33339 -1.02566,4.35905 -0.51283,0.76924 -2.82056,1.53848 -22.564457,7.94885 -47.180234,7.94885 z"
         style="font-style:normal;font-variant:normal;font-weight:bold;font-stretch:normal;font-family:'Cormorant Upright';-inkscape-font-specification:'Cormorant Upright Bold';letter-spacing:0px;fill:#ffffff;fill-opacity:1"
         id="path5337-2-6" />
      <path
         d="m 267.52595,298.24192 q 0.25642,-0.25642 0.76925,-0.25642 1.02565,0 1.7949,1.02566 1.02565,0.76924 0.25641,1.53849 -7.94884,11.02581 -15.12845,15.89769 -6.92318,4.61545 -14.87203,4.61545 -8.9745,0 -13.07713,-5.3847 -4.10263,-5.64111 -4.35904,-16.66693 v -21.79522 q -5.3847,21.53881 -15.89769,33.33387 -10.25657,11.53864 -24.61578,11.53864 -12.30789,0 -18.71824,-8.46167 -6.15395,-8.46167 -5.89753,-25.38502 l 1.02565,-45.64175 q 0.25642,-12.05148 -6.15394,-12.05148 -2.56414,0 -5.3847,2.05132 -2.56414,2.05131 -7.43602,6.92319 -0.51283,0.51282 -0.76924,0.51282 -1.02566,0 -1.7949,-0.76924 -0.76924,-1.02566 -0.51283,-1.7949 7.94885,-10.51299 14.10279,-15.12844 6.41036,-4.87188 14.10279,-4.87188 8.71809,0 13.33354,6.15395 4.61546,6.15394 4.10263,18.97466 l -0.76924,40.76988 q -0.25641,24.10295 12.05147,24.10295 7.69243,0 14.10279,-8.46168 6.66678,-8.71809 10.7694,-25.64143 4.10263,-16.92335 4.61546,-40.25705 V 222.8561 q 0,-2.30773 3.84622,-3.5898 3.84621,-1.53848 11.28223,-1.53848 8.71809,0 9.48733,2.05131 v 5.89753 q -0.51283,7.1796 -0.51283,13.07713 l -0.25641,57.1804 q 0,12.5643 6.41035,12.5643 5.64112,0 14.10279,-10.25657 z"
         style="font-style:normal;font-variant:normal;font-weight:bold;font-stretch:normal;font-family:'Cormorant Upright';-inkscape-font-specification:'Cormorant Upright Bold';letter-spacing:0px;fill:#ffffff;fill-opacity:1"
         id="path5339-9-1" />
      <path
         d="m 350.27568,297.9855 q 0.76924,0 1.53849,1.02566 0.76924,0.76924 0.25641,1.53849 -11.02582,11.28223 -20.00032,16.41052 -8.9745,4.87187 -18.71825,4.87187 -27.69274,0 -27.17992,-27.17992 l 0.25642,-54.35984 q 0.25641,-8.20526 -2.30773,-10.7694 -2.56414,-2.82056 -10.51299,-2.82056 -1.02565,0 -1.28207,-2.05132 0,-2.05131 0.76924,-2.05131 23.07729,0 31.53897,-22.56446 0.51283,-0.76925 2.05131,-0.76925 1.28207,0 2.30773,0.51283 1.28207,0.51283 1.28207,1.02566 v 21.02598 q 10.51299,-0.51283 33.33387,-2.05132 1.28207,0 2.05131,1.02566 0.76924,1.02566 0.76924,2.05131 -0.25641,2.82056 -2.82055,6.41036 -2.30773,3.33339 -5.12829,3.07697 -16.1541,-2.56414 -28.20558,-3.07697 l -0.25641,61.02661 q 0,8.97451 4.10263,13.33355 4.35904,4.10263 13.33354,4.10263 11.28223,0 22.56446,-9.74375 z"
         style="font-style:normal;font-variant:normal;font-weight:bold;font-stretch:normal;font-family:'Cormorant Upright';-inkscape-font-specification:'Cormorant Upright Bold';letter-spacing:0px;fill:#ffffff;fill-opacity:1"
         id="path5341-3-0" />
      <path
         d="m 431.90758,297.9855 q 0.76924,0 1.53848,1.02566 0.76925,0.76924 0.25642,1.53849 -11.02582,11.28223 -20.00032,16.41052 -8.9745,4.87187 -18.71825,4.87187 -27.69275,0 -27.17992,-27.17992 l 0.25642,-54.35984 q 0.25641,-8.20526 -2.30773,-10.7694 -2.56415,-2.82056 -10.51299,-2.82056 -1.02566,0 -1.28207,-2.05132 0,-2.05131 0.76924,-2.05131 23.07729,0 31.53896,-22.56446 0.51283,-0.76925 2.05132,-0.76925 1.28207,0 2.30773,0.51283 1.28207,0.51283 1.28207,1.02566 v 21.02598 q 10.51299,-0.51283 33.33386,-2.05132 1.28208,0 2.05132,1.02566 0.76924,1.02566 0.76924,2.05131 -0.25641,2.82056 -2.82056,6.41036 -2.30773,3.33339 -5.12828,3.07697 -16.15411,-2.56414 -28.20558,-3.07697 l -0.25641,61.02661 q 0,8.97451 4.10262,13.33355 4.35905,4.10263 13.33355,4.10263 11.28223,0 22.56446,-9.74375 z"
         style="font-style:normal;font-variant:normal;font-weight:bold;font-stretch:normal;font-family:'Cormorant Upright';-inkscape-font-specification:'Cormorant Upright Bold';letter-spacing:0px;fill:#ffffff;fill-opacity:1"
         id="path5343-19-6" />
      <path
         d="m 467.38489,321.06279 q -9.23091,0 -13.33354,-6.15394 -4.10263,-6.41036 -3.84622,-18.97466 l 0.76924,-128.20717 q 0.25642,-8.20526 -1.53848,-11.79506 -1.7949,-3.84621 -6.15395,-3.84621 -4.61545,0 -11.28223,3.33338 h -0.51282 q -1.28208,0 -1.53849,-1.28207 -0.51283,-1.53848 0.51283,-1.7949 l 40.25705,-19.48749 h 0.51283 q 1.02565,0 2.05131,0.76924 1.02566,0.76925 1.02566,1.28208 l -0.25641,161.0282 q -0.51283,12.05147 5.89753,12.05147 2.56414,0 5.64111,-2.30773 3.33339,-2.30772 7.43602,-6.66677 0.51282,-0.51283 1.02565,-0.51283 0.76925,0 1.28208,1.02566 0.76924,0.76924 0.51282,1.53849 -7.69243,10.51298 -14.10278,15.38486 -6.41036,4.61545 -14.35921,4.61545 z"
         style="font-style:normal;font-variant:normal;font-weight:bold;font-stretch:normal;font-family:'Cormorant Upright';-inkscape-font-specification:'Cormorant Upright Bold';letter-spacing:0px;fill:#ffffff;fill-opacity:1"
         id="path5345-4-1" />
      <path
         d="m 591.42931,302.60096 q 0.76924,0 1.53849,0.76925 0.76924,0.76924 0.25641,1.28207 -8.20526,8.9745 -18.71825,13.07713 -10.51299,4.10263 -21.5388,4.10263 -15.38486,0 -26.15426,-6.92319 -10.76941,-6.92319 -16.15411,-18.20542 -5.3847,-11.28223 -5.3847,-24.10294 0,-13.84638 7.1796,-26.6671 7.1796,-13.07713 20.25674,-21.28239 13.33354,-8.20525 30.5133,-8.20525 11.53865,0 17.94901,3.5898 6.66677,3.5898 7.43601,10.25657 1.02566,11.28223 -15.89769,21.02598 -16.92334,9.74374 -41.79553,14.10278 1.02565,19.74391 10.25657,32.56462 9.48733,12.56431 25.64143,12.56431 6.15395,0 12.56431,-1.7949 6.41035,-2.05132 11.53864,-6.15395 z m -41.53912,-79.23203 q -8.97451,0 -14.10279,10.7694 -4.87187,10.51299 -4.87187,27.17992 31.02613,-7.1796 30.00047,-25.64143 0,-5.64111 -3.07697,-8.9745 -2.82056,-3.33339 -7.94884,-3.33339 z"
         style="font-style:normal;font-variant:normal;font-weight:bold;font-stretch:normal;font-family:'Cormorant Upright';-inkscape-font-specification:'Cormorant Upright Bold';letter-spacing:0px;fill:#ffffff;fill-opacity:1"
         id="path5347-78-5" />
      <path
         d="m 727.03647,299.01116 q 0.51283,-0.51283 0.76924,-0.51283 1.02566,0 1.7949,1.02566 0.76924,0.76924 0.25642,1.53849 -7.69243,10.51298 -14.10279,15.38486 -6.15395,4.61545 -14.35921,4.61545 -8.9745,0 -13.07713,-6.15394 -4.10263,-6.41036 -3.84621,-18.97466 l 0.25641,-52.56494 q 0.25642,-6.92319 -2.82056,-10.00016 -3.07697,-3.33338 -12.5643,-4.61546 -9.48733,-1.28207 -30.76972,-1.53848 l 2.82056,96.92462 q 0.25641,4.10263 0.25641,11.28223 0,20.25673 -3.33338,31.79538 -3.33339,11.79506 -10.51299,16.92334 -7.1796,5.12829 -19.23108,5.12829 -12.30788,0 -20.00031,-4.35905 -7.69243,-4.10262 -7.94885,-10.25657 -0.25641,-4.87187 2.82056,-7.69243 3.07697,-2.56414 7.94884,-2.56414 6.92319,0 9.74375,3.07697 3.07697,3.07697 5.3847,8.9745 1.7949,4.10263 3.07697,5.89753 1.53849,1.7949 4.35905,1.7949 2.82055,0 3.5898,-3.84621 1.02565,-3.5898 1.02565,-14.61562 0,-11.28223 -0.76924,-34.87235 l -3.07697,-90.51426 q -0.25642,-6.66677 -1.53849,-9.23092 -1.28207,-2.82056 -4.61546,-3.5898 -3.07697,-0.76924 -10.7694,-0.76924 -1.02566,0 -1.28207,-2.05132 0,-2.05131 1.02566,-2.05131 8.9745,0 12.5643,-2.30773 3.84622,-2.30773 3.84622,-8.71809 0.25641,-40.25705 14.10278,-59.48812 14.10279,-19.48749 42.05195,-19.48749 14.61562,0 23.84654,5.12828 9.48733,4.87188 10.00016,12.56431 0.25641,5.12828 -3.07697,7.94884 -3.33339,2.82056 -8.97451,2.82056 -6.66677,0 -10.51298,-3.07697 -3.5898,-3.33339 -7.94885,-9.74375 -3.07697,-5.12829 -5.89753,-7.69243 -2.82056,-2.56414 -7.1796,-2.56414 -11.02582,0 -16.92335,15.12844 -5.89753,14.87204 -5.89753,44.10327 l 0.25642,8.9745 0.51283,15.64128 q 20.25673,-0.25642 48.97514,-1.53849 l 16.92334,-0.51283 q 2.56415,0 3.33339,1.02566 0.76924,0.76924 0.76924,3.84621 0,1.28208 -0.25641,5.64112 0,4.10263 0.25641,9.23092 l -0.25641,56.41115 q -0.25642,12.05147 5.89753,12.05147 2.82055,0 5.64111,-2.05131 3.07697,-2.30773 7.43602,-6.92319 z"
         style="font-style:normal;font-variant:normal;font-weight:bold;font-stretch:normal;font-family:'Cormorant Upright';-inkscape-font-specification:'Cormorant Upright Bold';letter-spacing:0px;fill:#ffffff;fill-opacity:1"
         id="path5349-4-9" />
      <path
         d="m 768.21097,321.57562 q -12.56431,0 -22.56447,-5.3847 -9.74374,-5.3847 -10.00015,-13.07713 0,-5.12829 3.07697,-7.69243 3.07697,-2.82056 7.94884,-2.82056 4.61546,0 7.94885,2.56415 3.33338,2.30773 7.69243,7.1796 5.12828,5.3847 8.71808,7.94884 3.84622,2.56415 9.23092,2.56415 4.87187,0 6.66677,-2.05132 2.05132,-2.30773 2.05132,-7.1796 0,-9.23092 -6.41036,-15.38486 -6.41036,-6.41036 -18.97466,-14.3592 -8.71809,-5.64112 -13.58996,-9.48733 -4.87187,-3.84622 -8.46168,-8.97451 -3.33338,-5.12828 -3.33338,-11.79505 0,-6.41036 4.61546,-12.56431 4.61545,-6.15394 12.82071,-10.00016 8.46168,-3.84621 19.23108,-3.84621 13.58996,0 22.05163,4.35904 8.46167,4.10263 8.71809,11.02582 0.51283,4.87187 -2.82056,7.69243 -3.07697,2.82056 -7.43601,2.82056 -6.15395,0 -9.48733,-2.30773 -3.07698,-2.30773 -6.41036,-7.1796 -3.33339,-4.61546 -6.41036,-6.92319 -2.82056,-2.30773 -8.46167,-2.30773 -4.61546,0 -6.66678,2.30773 -2.05131,2.30773 -2.05131,5.64111 0,7.94885 6.15394,13.84638 6.15395,5.64111 18.20542,13.33354 13.33355,8.46168 20.00032,15.38486 6.66677,6.66678 6.66677,16.15411 -0.25641,6.92318 -4.87187,14.10279 -4.61546,6.92318 -13.33355,11.79506 -8.71808,4.61545 -20.51314,4.61545 z"
         style="font-style:normal;font-variant:normal;font-weight:bold;font-stretch:normal;font-family:'Cormorant Upright';-inkscape-font-specification:'Cormorant Upright Bold';letter-spacing:0px;fill:#ffffff;fill-opacity:1"
         id="path5351-5-4" />
      <path
         d="m 939.73616,298.75475 q 0.25642,-0.25642 0.76924,-0.25642 1.02566,0 1.53849,1.02566 0.76924,0.76924 0.51283,1.53849 -7.94885,10.51298 -14.3592,15.38486 -6.15395,4.61545 -14.10279,4.61545 -8.9745,0 -13.33355,-6.15394 -4.10263,-6.41036 -3.84621,-18.97466 l 0.25641,-40.76988 q 0,-24.10295 -11.79506,-24.10295 -8.20526,0 -14.87203,9.48733 -6.66677,9.23092 -10.7694,27.69275 -3.84622,18.20542 -4.10263,43.59044 v 3.84621 q 0,2.30773 -3.84622,3.5898 -3.84621,1.53849 -11.28223,1.53849 -8.9745,0 -9.48733,-2.05131 v -5.89753 q 0.51283,-7.17961 0.51283,-13.07714 l 1.02566,-132.05338 q 0.25641,-8.20526 -1.7949,-12.05147 -1.7949,-3.84622 -6.15395,-3.84622 -4.10263,0 -11.28223,3.5898 h -0.25641 q -1.02566,0 -1.53849,-1.28207 -0.76924,-1.28207 0.25642,-1.7949 l 40.51346,-19.48749 h 0.51283 q 1.02566,0 2.05132,0.76924 1.02565,0.76925 1.02565,1.28208 l -0.25641,126.92509 q 5.3847,-21.79522 15.89769,-33.59028 10.51299,-11.79505 24.87219,-11.79505 24.87219,0 24.87219,33.84669 l -0.51283,45.64175 q -0.51283,12.05147 5.89753,12.05147 4.87187,0 13.07713,-9.23091 z"
         style="font-style:normal;font-variant:normal;font-weight:bold;font-stretch:normal;font-family:'Cormorant Upright';-inkscape-font-specification:'Cormorant Upright Bold';letter-spacing:0px;fill:#ffffff;fill-opacity:1"
         id="path5353-0-9" />
    </g>
    <g
       id="g849"
       transform="translate(-58.031985,-434.80495)">
      <circle
         r="71.225739"
         cy="510.69336"
         cx="133.38943"
         id="path829"
         style="opacity:1;fill:#ffffff;fill-opacity:1;stroke-width:0.79695803" />
      <path
         style="color:#000000;font-style:normal;font-variant:normal;font-weight:normal;font-stretch:normal;font-size:medium;line-height:normal;font-family:sans-serif;font-variant-ligatures:normal;font-variant-position:normal;font-variant-caps:normal;font-variant-numeric:normal;font-variant-alternates:normal;font-feature-settings:normal;text-indent:0;text-align:start;text-decoration:none;text-decoration-line:none;text-decoration-style:solid;text-decoration-color:#000000;letter-spacing:normal;word-spacing:normal;text-transform:none;writing-mode:lr-tb;direction:ltr;text-orientation:mixed;dominant-baseline:auto;baseline-shift:baseline;text-anchor:start;white-space:normal;shape-padding:0;clip-rule:nonzero;display:inline;overflow:visible;visibility:visible;opacity:1;isolation:auto;mix-blend-mode:normal;color-interpolation:sRGB;color-interpolation-filters:linearRGB;solid-color:#000000;solid-opacity:1;vector-effect:none;fill:#000000;fill-opacity:1;fill-rule:nonzero;stroke:none;stroke-width:7.01183558;stroke-linecap:round;stroke-linejoin:round;stroke-miterlimit:4;stroke-dasharray:none;stroke-dashoffset:0;stroke-opacity:1;color-rendering:auto;image-rendering:auto;shape-rendering:auto;text-rendering:auto;enable-background:accumulate"
         d="m 134.11328,436.67969 c -40.941284,0 -74.20703,33.26574 -74.20703,74.20703 0,40.94128 33.265746,74.20508 74.20703,74.20508 40.94129,0 74.20508,-33.2638 74.20508,-74.20508 0,-40.94129 -33.26379,-74.20703 -74.20508,-74.20703 z m 0,7.01172 c 37.15181,0 67.19336,30.0435 67.19336,67.19531 0,37.15181 -30.04155,67.19336 -67.19336,67.19336 -37.151807,0 -67.195311,-30.04155 -67.195311,-67.19336 0,-37.15181 30.043504,-67.19531 67.195311,-67.19531 z"
         id="path4617-3-9-2" />
      <path
         id="path4619-6-7-7"
         d="m 83.529602,491.16298 c -6.872378,14.6598 -5.425058,34.82005 2.697414,44.51301 6.47769,7.73013 12.587453,7.90875 19.251074,5.27642 5.60176,-2.1567 11.57444,-6.96368 17.81267,-4.11419 6.37022,3.46284 10.29151,10.16941 16.88914,13.36918 9.22228,5.17694 20.87691,3.08553 29.69061,-1.96894 9.22747,-5.29176 15.32362,-16.09495 17.7845,-25.55484 2.46088,-9.45989 1.65604,-22.21314 -2.88283,-33.4454 -1.22785,-3.86625 -5.04634,-10.27686 -10.51554,-8.06008 -5.46919,2.21679 -3.61822,11.9101 -5.77409,17.65119 -1.99798,5.32073 -6.20173,10.00104 -12.61437,9.93638 -6.41263,-0.0646 -11.16249,-8.34659 -17.23201,-11.80616 -8.39995,-5.43618 -20.59268,-3.2622 -27.1092,4.16896 -4.32997,3.8166 -8.58008,11.73708 -14.3149,9.82665 -5.734786,-1.91041 -3.34227,-11.78268 -1.21819,-16.92447 2.12408,-5.1418 6.57321,-14.28019 1.230422,-16.20309 -5.189499,-1.86772 -9.159951,3.66211 -13.6947,13.33538 z"
         style="color:#000000;font-style:normal;font-variant:normal;font-weight:normal;font-stretch:normal;font-size:medium;line-height:normal;font-family:sans-serif;text-indent:0;text-align:start;text-decoration:none;text-decoration-line:none;text-decoration-style:solid;text-decoration-color:#000000;letter-spacing:normal;word-spacing:normal;text-transform:none;writing-mode:lr-tb;direction:ltr;baseline-shift:baseline;text-anchor:start;white-space:normal;clip-rule:nonzero;display:inline;overflow:visible;visibility:visible;opacity:1;isolation:auto;mix-blend-mode:normal;color-interpolation:sRGB;color-interpolation-filters:linearRGB;solid-color:#000000;solid-opacity:1;fill:#5db860;fill-opacity:1;fill-rule:evenodd;stroke:none;stroke-width:49.2374115;stroke-linecap:butt;stroke-linejoin:miter;stroke-miterlimit:4;stroke-dasharray:none;stroke-dashoffset:0;stroke-opacity:1;color-rendering:auto;image-rendering:auto;shape-rendering:auto;text-rendering:auto;enable-background:accumulate" />
    </g>
  </g>
</svg>
