<?xml version="1.0" encoding="UTF-8" standalone="no"?>
<svg
   xmlns:dc="http://purl.org/dc/elements/1.1/"
   xmlns:cc="http://creativecommons.org/ns#"
   xmlns:rdf="http://www.w3.org/1999/02/22-rdf-syntax-ns#"
   xmlns:svg="http://www.w3.org/2000/svg"
   xmlns="http://www.w3.org/2000/svg"
   xmlns:xlink="http://www.w3.org/1999/xlink"
   version="1.1"
   id="svg4668"
   viewBox="0 0 140.625 140.625"
   height="150"
   width="150">
  <defs
     id="defs4670">
    <linearGradient
       id="linearGradient965">
      <stop
         id="stop961"
         offset="0"
         style="stop-color:#7b33b6;stop-opacity:1" />
      <stop
         id="stop963"
         offset="1"
         style="stop-color:#5db860;stop-opacity:1" />
    </linearGradient>
    <linearGradient
       gradientUnits="userSpaceOnUse"
       y2="167.16187"
       x2="4.9999999e-06"
       y1="-792.83813"
       x1="4.9999999e-06"
       id="linearGradient967"
       xlink:href="#linearGradient965" />
  </defs>
  <metadata
     id="metadata4673">
    <rdf:RDF>
      <cc:Work
         rdf:about="">
        <dc:format>image/svg+xml</dc:format>
        <dc:type
           rdf:resource="http://purl.org/dc/dcmitype/StillImage" />
        <dc:title></dc:title>
      </cc:Work>
    </rdf:RDF>
  </metadata>
  <g
     transform="translate(-4.9999999e-6,-26.536868)"
     id="layer2" />
  <g
     transform="translate(-4.9999999e-6,-26.536868)"
     style="display:inline"
     id="layer1">
    <g
       transform="matrix(0.14648438,0,0,0.14648438,4.267578e-6,142.67527)"
       id="g845">
      <path
         style="opacity:1;fill:url(#linearGradient967);fill-opacity:1;stroke-width:0.9375"
         d="m 480,-792.83813 c 265.92,0 480,214.08 480,480 0,265.919995 -214.08,480 -480,480 -265.92,0 -479.9999950000001,-214.080005 -479.9999950000001,-480 0,-265.92 214.0799950000001,-480 479.9999950000001,-480 z"
         id="rect959" />
      <circle
         r="435.52618"
         cy="-314.01447"
         cx="475.5799"
         id="path829"
         style="opacity:1;fill:#ffffff;fill-opacity:1;stroke-width:4.87318373" />
      <path
         id="path4617-3-9-2"
         d="m 480.00598,-766.58813 c -250.34491,0 -453.75598,203.41103 -453.75598,453.75598 0,250.344889 203.41107,453.74406 453.75598,453.74406 250.34498,0 453.74403,-203.399171 453.74403,-453.74406 0,-250.34495 -203.39911,-453.75598 -453.74403,-453.75598 z m 0,42.87478 c 227.17327,0 410.86931,183.7079 410.86931,410.8812 0,227.173302 -183.69597,410.869281 -410.86931,410.869281 -227.17328,0 -410.881209,-183.695979 -410.881209,-410.869281 0,-227.1733 183.707929,-410.8812 410.881209,-410.8812 z"
         style="color:#000000;font-style:normal;font-variant:normal;font-weight:normal;font-stretch:normal;font-size:medium;line-height:normal;font-family:sans-serif;font-variant-ligatures:normal;font-variant-position:normal;font-variant-caps:normal;font-variant-numeric:normal;font-variant-alternates:normal;font-feature-settings:normal;text-indent:0;text-align:start;text-decoration:none;text-decoration-line:none;text-decoration-style:solid;text-decoration-color:#000000;letter-spacing:normal;word-spacing:normal;text-transform:none;writing-mode:lr-tb;direction:ltr;text-orientation:mixed;dominant-baseline:auto;baseline-shift:baseline;text-anchor:start;white-space:normal;shape-padding:0;clip-rule:nonzero;display:inline;overflow:visible;visibility:visible;opacity:1;isolation:auto;mix-blend-mode:normal;color-interpolation:sRGB;color-interpolation-filters:linearRGB;solid-color:#000000;solid-opacity:1;vector-effect:none;fill:#000000;fill-opacity:1;fill-rule:nonzero;stroke:none;stroke-width:42.87548447;stroke-linecap:round;stroke-linejoin:round;stroke-miterlimit:4;stroke-dasharray:none;stroke-dashoffset:0;stroke-opacity:1;color-rendering:auto;image-rendering:auto;shape-rendering:auto;text-rendering:auto;enable-background:accumulate" />
      <path
         id="path4619-6-7-7"
         d="m 170.70043,-433.4375 c -42.02274,89.64072 -33.17277,212.91522 16.49396,272.18505 39.60933,47.26766 76.96888,48.35988 117.71513,32.26389 34.25325,-13.18764 70.77458,-42.58103 108.91967,-25.15716 38.95218,21.17433 62.92981,62.183196 103.27254,81.748927 56.39175,31.655593 127.6567,18.867184 181.5501,-12.039537 56.4235,-32.35769 93.69975,-98.41628 108.74737,-156.26096 15.04767,-57.84467 10.12623,-135.82736 -17.62773,-204.5096 -7.50797,-23.64108 -30.85695,-62.84023 -64.29963,-49.28522 -33.44263,13.55508 -22.12444,72.82705 -35.30701,107.93227 -12.21711,32.53483 -37.9219,61.15366 -77.13347,60.75829 -39.21153,-0.39502 -68.25565,-51.03715 -105.36912,-72.19149 -51.36343,-33.24077 -125.91869,-19.94747 -165.76545,25.49207 -26.4766,23.33748 -52.46488,71.76908 -87.53176,60.08731 -35.06667,-11.68164 -20.43708,-72.04791 -7.4489,-103.48857 12.98817,-31.44072 40.19341,-87.31951 7.5237,-99.07753 -31.73239,-11.4206 -56.01063,22.39282 -83.7394,81.54226 z"
         style="color:#000000;font-style:normal;font-variant:normal;font-weight:normal;font-stretch:normal;font-size:medium;line-height:normal;font-family:sans-serif;text-indent:0;text-align:start;text-decoration:none;text-decoration-line:none;text-decoration-style:solid;text-decoration-color:#000000;letter-spacing:normal;word-spacing:normal;text-transform:none;writing-mode:lr-tb;direction:ltr;baseline-shift:baseline;text-anchor:start;white-space:normal;clip-rule:nonzero;display:inline;overflow:visible;visibility:visible;opacity:1;isolation:auto;mix-blend-mode:normal;color-interpolation:sRGB;color-interpolation-filters:linearRGB;solid-color:#000000;solid-opacity:1;fill:#5db860;fill-opacity:1;fill-rule:evenodd;stroke:none;stroke-width:301.07348633;stroke-linecap:butt;stroke-linejoin:miter;stroke-miterlimit:4;stroke-dasharray:none;stroke-dashoffset:0;stroke-opacity:1;color-rendering:auto;image-rendering:auto;shape-rendering:auto;text-rendering:auto;enable-background:accumulate" />
    </g>
  </g>
</svg>
